PathFileType	4	(X/Y/Z)	./resultDataOpenSim/trcMotMarkerGrf/sub10/qtm-13-08.trc
DataRate	CameraRate	NumFrames	NumMarkers	Units	OrigDataRate	OrigDataStartFrame	OrigNumFrames
250.000000	250.000000	8	24	m	250.000000	397	529
Frame#	Time	L.Toe.Tip			R.Toe.Tip			L.Ankle.Lat			R.Ankle.Lat			L.Ankle.Med			R.Ankle.Med			L.Heel			R.Heel			L.Knee.Lat			R.Knee.Lat			L.Knee.Med			R.Knee.Med			L.Thigh.Upper			R.Thigh.Upper			L.ASIS			R.ASIS			V.Sacral			L.Acromium			R.Acromium			C7			L.Elbow			R.Elbow			L.Wrist.Lat			R.Wrist.Lat
		X1	Y1	Z1	X2	Y2	Z2	X3	Y3	Z3	X4	Y4	Z4	X5	Y5	Z5	X6	Y6	Z6	X7	Y7	Z7	X8	Y8	Z8	X9	Y9	Z9	X10	Y10	Z10	X11	Y11	Z11	X12	Y12	Z12	X13	Y13	Z13	X14	Y14	Z14	X15	Y15	Z15	X16	Y16	Z16	X17	Y17	Z17	X18	Y18	Z18	X19	Y19	Z19	X20	Y20	Z20	X21	Y21	Z21	X22	Y22	Z22	X23	Y23	Z23	X24	Y24	Z24

397	1.584	0.89666743	0.065632822	-0.12691908	0.86476666	0.038308563	0.10237707	0.78491585	0.13973073	-0.13601402	0.72071964	0.058317641	0.13746666	0.81094352	0.14766331	-0.053594751	0.7417354	0.083708602	0.054479865	0.71696587	0.12894782	-0.086176485	0.67152283	0.035159002	0.091487417	0.96937272	0.47980617	-0.13676271	0.78545092	0.45635489	0.17485929	0.98565881	0.44627691	-0.018556141	0.79803504	0.45342886	0.045480322	0.88300877	0.85309824	-0.17437262	0.82768485	0.87046469	0.20845877	0.92448101	0.96683811	-0.098778738	0.90943745	0.95931253	0.14448239	0.7159906	0.97118189	0.0056585457	0.83170693	1.4346525	-0.13424792	0.80351726	1.4317467	0.18778113	0.7380982	1.4559445	0.015658999	0.73708241	1.1078458	-0.21882949	0.73088446	1.0941612	0.27545031	0.86887171	0.9207756	-0.30517297	0.87262196	0.9566814	0.41976818
398	1.588	0.91356476	0.064992842	-0.12726531	0.86476127	0.038310973	0.10237313	0.79989027	0.13630218	-0.13587686	0.72081373	0.058515219	0.13730706	0.82609962	0.14469371	-0.053638418	0.74190313	0.083840199	0.054307158	0.73239532	0.12382293	-0.085872785	0.67184701	0.035345801	0.091674407	0.97746002	0.48038807	-0.13688571	0.78707643	0.45641086	0.17460985	0.99533027	0.44706209	-0.019014623	0.79979246	0.45342692	0.045257	0.88858507	0.85319325	-0.17462142	0.83115735	0.87009279	0.20798987	0.92938485	0.96670815	-0.098967045	0.91347079	0.95893554	0.14463807	0.72064346	0.9706759	0.0049478739	0.83650371	1.4341042	-0.13441603	0.80858876	1.431346	0.18771326	0.74290502	1.4555981	0.015551568	0.74057042	1.1077732	-0.21872979	0.73747969	1.0935901	0.27701426	0.87039807	0.9198804	-0.30620483	0.88209948	0.95832243	0.42124397
399	1.592	0.93045406	0.064421054	-0.12757464	0.86478492	0.038330251	0.10236613	0.81494493	0.13291313	-0.13573482	0.72086632	0.058731514	0.13714102	0.84098063	0.14171653	-0.053812143	0.74210166	0.083963681	0.054126643	0.74809167	0.11865143	-0.085559186	0.67214233	0.035446055	0.091732625	0.98543922	0.48091723	-0.13700864	0.78869973	0.45650452	0.17438492	1.0044672	0.44778097	-0.019399588	0.80146876	0.45344758	0.04503892	0.89408519	0.85324692	-0.17486407	0.83465985	0.86972632	0.20751525	0.93425626	0.96653565	-0.099187817	0.91751204	0.958559	0.1447738	0.7252639	0.97015473	0.0041226632	0.8413153	1.4335329	-0.13459739	0.81363142	1.4309086	0.18762372	0.7477137	1.4552211	0.015437828	0.74405476	1.1076868	-0.21859105	0.74393123	1.0930969	0.2784798	0.87192708	0.91899115	-0.30725129	0.89154528	0.95995708	0.42265699
400	1.596	0.94728686	0.063930159	-0.12784951	0.86480668	0.038352066	0.10236531	0.83008096	0.12953889	-0.13561187	0.7208862	0.058966921	0.1369639	0.85538432	0.138702	-0.054154834	0.74226809	0.084098003	0.053921564	0.76399948	0.11351665	-0.08523028	0.67232201	0.035545997	0.091596905	0.99329856	0.48139411	-0.13713317	0.79031895	0.45662579	0.17418263	1.0128904	0.44842851	-0.019672076	0.80307376	0.45348609	0.044819785	0.89955818	0.85326135	-0.17512195	0.83819327	0.86935675	0.20703014	0.93909926	0.96632102	-0.099439156	0.92155807	0.95818057	0.14487932	0.72989616	0.96958203	0.0033317971	0.84614076	1.4329347	-0.13477246	0.81866435	1.4304527	0.18751435	0.75252669	1.4548297	0.015317314	0.7475394	1.1075758	-0.21845467	0.75044144	1.0926681	0.28001383	0.87344677	0.91811818	-0.30831924	0.90095508	0.96158848	0.42400556
401	1.6	0.96408332	0.063531279	-0.12811335	0.86482694	0.038362926	0.10236544	0.84529597	0.12618104	-0.13552369	0.72089253	0.059219359	0.13677233	0.86953098	0.13566912	-0.054572607	0.74235778	0.084255577	0.053683493	0.77996805	0.10850761	-0.084919673	0.67237956	0.035714957	0.091318224	1.001045	0.48181431	-0.13726127	0.79192724	0.4567607	0.17399331	1.0208351	0.44899856	-0.019880339	0.80457962	0.45352933	0.044572634	0.90507868	0.8532357	-0.17541676	0.84176464	0.86898373	0.20653336	0.94391791	0.96606456	-0.099719196	0.92560808	0.95779719	0.14495127	0.73454409	0.96894756	0.0025906742	0.85096583	1.432306	-0.13493899	0.82370272	1.4299881	0.1873871	0.75734343	1.4544283	0.015190855	0.75103462	1.1074324	-0.21835674	0.75707326	1.0922613	0.28173906	0.87494639	0.9172651	-0.3094107	0.91032997	0.96321474	0.42529261
402	1.604	0.98086904	0.063229167	-0.12837707	0.86486737	0.038364705	0.10236218	0.86059168	0.12286893	-0.13546115	0.72090789	0.059486652	0.13656451	0.88401327	0.13272787	-0.054885395	0.74243277	0.08442879	0.053438956	0.7958823	0.10365193	-0.084674494	0.67235456	0.035943088	0.090960644	1.0086998	0.48217858	-0.13739749	0.79352155	0.45689545	0.17379966	1.0285657	0.44949429	-0.020073207	0.8059211	0.45355045	0.044243681	0.91066653	0.85316454	-0.1757474	0.84538885	0.86861265	0.20603206	0.94871633	0.96576674	-0.10002597	0.92966591	0.95740559	0.14499253	0.73919581	0.96827678	0.0018626713	0.8557746	1.4316512	-0.13511047	0.82874761	1.4295104	0.18724067	0.76215896	1.4540031	0.015055959	0.75455391	1.1072599	-0.21829263	0.76367593	1.0918392	0.28368519	0.87642501	0.91642872	-0.31050659	0.919675	0.96483141	0.42652171
403	1.608	0.99765497	0.063026322	-0.12864071	0.86494749	0.038378393	0.10236523	0.87598429	0.11963446	-0.13540071	0.72094861	0.059767602	0.13634454	0.89944531	0.13001575	-0.05502364	0.74256894	0.084607706	0.053211782	0.81178753	0.098932568	-0.084487405	0.67229836	0.036198954	0.090576922	1.0162756	0.4824875	-0.13754941	0.79510941	0.45702928	0.17359433	1.0362151	0.44992301	-0.020280351	0.8070874	0.45353463	0.043808581	0.91619521	0.8530355	-0.17607341	0.84908034	0.86824397	0.20553508	0.95349882	0.96542826	-0.10035734	0.93373647	0.95700422	0.14500253	0.74385126	0.96759465	0.0011414314	0.8605627	1.4309788	-0.13530116	0.83379354	1.4290137	0.1870736	0.76696692	1.4535421	0.014907244	0.75810872	1.1070713	-0.21824867	0.77006459	1.0913767	0.28582198	0.87788906	0.91559596	-0.3115613	0.92899464	0.96643614	0.42769123
404	1.612	1.0144472	0.06292854	-0.12890898	0.86506565	0.038418699	0.10238078	0.89148248	0.1164967	-0.13532763	0.72101297	0.060060337	0.13612634	0.91613765	0.12762972	-0.055077708	0.74275894	0.084794507	0.052992695	0.82781995	0.094334935	-0.084295693	0.67225034	0.036475711	0.090198692	1.0237597	0.48272604	-0.13772886	0.79670548	0.45717113	0.17338084	1.0438028	0.4502836	-0.020511836	0.80824547	0.45352478	0.043347964	0.92147702	0.85283323	-0.17634343	0.85284096	0.86787226	0.20504356	0.95826966	0.96504996	-0.10071109	0.93782346	0.9565939	0.14497537	0.74851853	0.96689652	0.00046183844	0.86533953	1.4302938	-0.13551141	0.83883574	1.4284966	0.18688752	0.77176491	1.4530527	0.014744817	0.76170226	1.1068772	-0.21822336	0.77628834	1.0908785	0.28804769	0.87934363	0.91475005	-0.31253459	0.93828877	0.96802931	0.42879565
